<svg width="11" height="15" viewBox="0 0 11 15" fill="none" xmlns="http://www.w3.org/2000/svg">
<path fill-rule="evenodd" clip-rule="evenodd" d="M0 1.875C0 1.18464 0.556923 0.625 1.24392 0.625H9.32943C10.0164 0.625 10.5733 1.18464 10.5733 1.875V13.75C10.5733 13.9757 10.4522 14.184 10.2564 14.2947C10.0606 14.4054 9.82059 14.4014 9.62859 14.2842L5.28667 11.6348L0.944779 14.2842C0.752748 14.4014 0.512752 14.4054 0.316958 14.2947C0.121158 14.184 0 13.9757 0 13.75V1.875ZM9.32943 1.875H1.24392V12.6392L4.96388 10.3694C5.16222 10.2484 5.41113 10.2484 5.60947 10.3694L9.32943 12.6392V1.875Z" fill="#B6B6B6"/>
</svg>
